<svg xmlns="http://www.w3.org/2000/svg" viewBox="0 0 362.44 358.15"><g data-name="Layer 2"><g data-name="Layer 1"><path d="M148 145a11.44 11.44 0 0 1-8-3.21c-3.48-3.36-3.86-8.36-4.26-13.65l-.15-1.93h-.24c-6.05-.13-11.75-.25-15.58-3.94a11.55 11.55 0 0 1 16.05-16.62c3.24 3.13 3.62 7.68 4 12.51.09 1 .17 2 .29 3.06 6.44.1 12 .19 15.9 4A11.56 11.56 0 0 1 148 145zm-4.42-6.88a6.45 6.45 0 0 0 9-9.28c-2.36-2.28-6.52-2.44-11.79-2.53q.06.74.12 1.44c.33 4.49.62 8.36 2.71 10.37zm-20.25-19.52c2.31 2.24 6.64 2.39 11.68 2.5-.09-.85-.16-1.69-.23-2.51-.34-4-.63-7.47-2.49-9.27a6.45 6.45 0 0 0-9 9.28z" fill="#63c1a0"/><path fill="#e01a59" d="M344.452 356.802l6.274-23.414 4.926 1.32-6.274 23.414z"/><path fill="#e01a59" d="M337.695 345.102l1.32-4.927 23.414 6.274-1.32 4.926z"/><path d="M187 265.94a2.55 2.55 0 0 1-1.75-.69l-8.25-7.81 3.48-3.72 6.62 6.28 15.72-13.51 3.33 3.87-17.46 15a2.54 2.54 0 0 1-1.69.58z" fill="#ecb32d"/><path d="M257.17 29.07a2.57 2.57 0 0 1-1.42-.43c-9.45-6.37-10.17-14.39-10.4-17-.26-3 1.35-9.88 7.82-11.38 2.29-.52 6.3-.58 9.59 3.89 5.14-2.47 8.72-.35 10.51 1.31 4.21 3.87 3.33 10.16 1.37 13.38s-7 9.13-17.19 10.24zm-1.84-24a4.89 4.89 0 0 0-1 .13c-3.8.88-3.89 5.88-3.89 5.93.19 2.2.69 7.84 7.4 12.73 7-1 10.63-4.72 12.45-7.7.66-1.08 1.82-4.88-.46-7-1.23-1.14-3-2-6.47.49a2.54 2.54 0 0 1-3.73-.93c-1.63-3.07-3.19-3.64-4.3-3.64z" fill="#89d3df"/><path d="M11.55 304.61a11.55 11.55 0 1 1 11.55-11.55 11.56 11.56 0 0 1-11.55 11.55zm0-18a6.45 6.45 0 1 0 6.45 6.45 6.45 6.45 0 0 0-6.45-6.45z" fill="#e01a59"/></g></g></svg>