<svg xmlns="http://www.w3.org/2000/svg" viewBox="0 0 362.44 358.15"><title>Asset 4</title><g id="Layer_2" data-name="Layer 2"><g id="Layer_1-2" data-name="Layer 1"><path d="M148,145a11.44,11.44,0,0,1-8-3.21h0c-3.48-3.36-3.86-8.36-4.26-13.65l-.15-1.93h-.24c-6.05-.13-11.75-.25-15.58-3.94h0a11.55,11.55,0,0,1,16.05-16.62c3.24,3.13,3.62,7.68,4,12.51.09,1,.17,2,.29,3.06,6.44.1,12,.19,15.9,4A11.56,11.56,0,0,1,148,145Zm-4.42-6.88a6.45,6.45,0,0,0,9-9.28c-2.36-2.28-6.52-2.44-11.79-2.53q.06.74.12,1.44c.33,4.49.62,8.36,2.71,10.37ZM123.33,118.6c2.31,2.24,6.64,2.39,11.68,2.5-.09-.85-.16-1.69-.23-2.51-.34-4-.63-7.47-2.49-9.27a6.45,6.45,0,0,0-9,9.28Z" style="fill:#63c1a0"/><rect x="337.95" y="343.24" width="24.24" height="5.1" transform="translate(-74.56 594.4) rotate(-75)" style="fill:#e01a59"/><rect x="347.52" y="333.67" width="5.1" height="24.24" transform="translate(-74.55 594.42) rotate(-75)" style="fill:#e01a59"/><path d="M187,265.94a2.55,2.55,0,0,1-1.75-.69L177,257.44l3.48-3.72L187.1,260l15.72-13.51,3.33,3.87-17.46,15A2.54,2.54,0,0,1,187,265.94Z" style="fill:#ecb32d"/><path d="M257.17,29.07a2.57,2.57,0,0,1-1.42-.43c-9.45-6.37-10.17-14.39-10.4-17-.26-3,1.35-9.88,7.82-11.38,2.29-.52,6.3-.58,9.59,3.89,5.14-2.47,8.72-.35,10.51,1.31,4.21,3.87,3.33,10.16,1.37,13.38s-7,9.13-17.19,10.24Zm-1.84-24a4.89,4.89,0,0,0-1,.13c-3.8.88-3.89,5.88-3.89,5.93.19,2.2.69,7.84,7.4,12.73,7-1,10.63-4.72,12.45-7.7.66-1.08,1.82-4.88-.46-7-1.23-1.14-3-2-6.47.49a2.54,2.54,0,0,1-3.73-.93C258,5.65,256.44,5.08,255.33,5.08Z" style="fill:#89d3df"/><path d="M11.55,304.61A11.55,11.55,0,1,1,23.1,293.06,11.56,11.56,0,0,1,11.55,304.61Zm0-18A6.45,6.45,0,1,0,18,293.06,6.45,6.45,0,0,0,11.55,286.61Z" style="fill:#e01a59"/></g></g></svg>