<svg xmlns="http://www.w3.org/2000/svg" viewBox="0 0 344.73 365.4"><g data-name="Layer 2"><g data-name="Layer 1"><path d="M155.86 175.37a11.28 11.28 0 0 1-4.27-.84c-4.49-1.81-6.71-6.3-9.06-11.06-.29-.57-.57-1.15-.87-1.73l-.23.09c-5.64 2.14-11 4.16-15.91 2.17a11.37 11.37 0 0 1-6.27-6.19 11.56 11.56 0 0 1 14.93-15.23c4.17 1.69 6.23 5.77 8.42 10.09.45.9.92 1.82 1.41 2.73 6-2.32 11.2-4.32 16.23-2.28a11.56 11.56 0 0 1-4.38 22.25zm-9.4-15.45l.64 1.29c2 4 3.71 7.51 6.4 8.59a6.45 6.45 0 0 0 4.83-12c-3.04-1.18-6.96.2-11.87 2.12zm-19-.65c3 1.21 7.06-.27 11.77-2.05-.4-.76-.78-1.51-1.15-2.25-1.82-3.59-3.39-6.69-5.78-7.66a6.36 6.36 0 0 0-4.9.06 6.49 6.49 0 0 0-3.42 8.47 6.33 6.33 0 0 0 3.48 3.43z" fill="#e01a59"/><path d="M274.85 255.46a2.56 2.56 0 0 1-2.49-2l-3.67-17.26a2.54 2.54 0 0 1 3.32-2.94l16.2 5.58a2.54 2.54 0 0 1 .91 4.27l-12.53 11.69a2.57 2.57 0 0 1-1.74.66zm-.23-15.93l1.79 8.44 6.13-5.71z" fill="#89d3df"/><path d="M75.42 365.4a20.85 20.85 0 0 1-11.81-3.63c-2.49-1.61-7-7.15-4.14-13.17 1-2.11 3.4-5.31 9-5.15 1.22-5.57 5.1-7.09 7.5-7.49 5.64-.92 10.06 3.64 11.39 7.17s2.85 11.13-2.56 19.87a2.54 2.54 0 0 1-1.37 1.08 25.81 25.81 0 0 1-8.01 1.32zM68 348.54c-2.87 0-3.58 1.51-3.91 2.22-1.65 3.54 2.24 6.69 2.28 6.72 1.84 1.2 6.59 4.28 14.58 2 3.51-6.16 2.83-11.29 1.6-14.55-.45-1.18-2.73-4.45-5.79-3.93-1.65.27-3.36 1.12-3.59 5.4a2.55 2.55 0 0 1-1 1.87 2.58 2.58 0 0 1-2.06.49 11.16 11.16 0 0 0-2.11-.22zM1.49 16.56L0 11.68l11.56-3.53L13.05 13zm18.73-5.72L18.73 6 30 2.53l1.49 4.88z" fill="#63c1a0"/><path d="M12.88 19a2.92 2.92 0 0 1-1.61-.37C10 18.12 9 16.62 7.57 12s-1.4-6.4-.63-7.47c.33-.63.9-1.69 6.4-3.37S19.92 0 20.55.37c1.24.46 2.26 2 3.66 6.55s1.4 6.4.63 7.47c-.34.63-.9 1.7-6.4 3.38A20.79 20.79 0 0 1 12.88 19zm8.44-3.72zm-9.73-8.09a36.3 36.3 0 0 0 2 6.61 36.4 36.4 0 0 0 6.62-2 35.56 35.56 0 0 0-2-6.61 36.3 36.3 0 0 0-6.62 2z" fill="#63c1a0"/><path d="M334.68 84.15a10.05 10.05 0 1 1 10.05-10.05 10.06 10.06 0 0 1-10.05 10.05zm0-15a4.95 4.95 0 1 0 4.95 4.95 5 5 0 0 0-4.95-4.95z" fill="#ecb32d"/></g></g></svg>