<svg xmlns="http://www.w3.org/2000/svg" viewBox="0 0 489.43 147"><defs><clipPath id="a"><path d="M27.12 111.45c-.17.37-.75.48-1.29.23s-.84-.75-.67-1.13.75-.49 1.29-.23.85.76.67 1.13" fill="none" clip-rule="evenodd"/></clipPath><clipPath id="b"><path d="M30.15 114.83a1.15 1.15 0 0 1-1.53-.34c-.49-.53-.58-1.23-.22-1.56s1.05-.18 1.54.35.58 1.22.21 1.55" fill="none" clip-rule="evenodd"/></clipPath><clipPath id="c"><path d="M33.1 119.14c-.46.32-1.21 0-1.67-.64s-.46-1.47 0-1.79 1.2 0 1.67.63.46 1.48 0 1.8" fill="none" clip-rule="evenodd"/></clipPath><clipPath id="d"><path d="M37.14 123.31c-.41.45-1.28.33-1.92-.29s-.84-1.46-.43-1.91a1.42 1.42 0 0 1 1.94.29c.65.6.85 1.46.41 1.91" fill="none" clip-rule="evenodd"/></clipPath><clipPath id="e"><path d="M42.72 125.73c-.18.58-1 .85-1.87.6s-1.4-.94-1.23-1.54 1-.86 1.88-.6 1.4.94 1.22 1.54" fill="none" clip-rule="evenodd"/></clipPath><clipPath id="f"><path d="M48.85 126.18c0 .61-.7 1.12-1.59 1.14s-1.62-.48-1.63-1.09.71-1.13 1.6-1.15 1.62.48 1.62 1.1" fill="none" clip-rule="evenodd"/></clipPath><clipPath id="g"><path d="M54.55 125.21c.11.6-.51 1.22-1.39 1.38s-1.68-.21-1.79-.81.52-1.24 1.39-1.4 1.68.21 1.79.83" fill="none" clip-rule="evenodd"/></clipPath></defs><g data-name="Layer 2"><g data-name="Layer 1"><path d="M75.36 0a75.37 75.37 0 0 0-23.82 146.87c3.76.7 5.15-1.64 5.15-3.63 0-1.79-.07-7.73-.11-14-21 4.56-25.39-8.89-25.39-8.89-3.42-8.71-8.36-11-8.36-11-6.84-4.68.51-4.59.51-4.59 7.57.54 11.55 7.77 11.55 7.77 6.72 11.52 17.63 8.19 21.93 6.27.68-4.87 2.63-8.2 4.79-10.08-16.74-1.91-34.34-8.37-34.34-37.25A29.15 29.15 0 0 1 35 51.2c-.78-1.9-3.36-9.57.73-20 0 0 6.33-2 20.73 7.73a71.36 71.36 0 0 1 37.74 0c14.38-9.75 20.7-7.73 20.7-7.73 4.1 10.38 1.52 18 .74 20a29.1 29.1 0 0 1 7.76 20.22c0 29-17.63 35.32-34.41 37.19 2.7 2.34 5.11 6.92 5.11 14 0 10.09-.09 18.2-.09 20.68 0 2 1.36 4.36 5.18 3.62A75.37 75.37 0 0 0 75.36 0z" fill-rule="evenodd"/><path d="M28.54 108.2c-.16.38-.75.49-1.29.23s-.85-.76-.67-1.13.75-.49 1.29-.24.86.77.67 1.14zM31.6 111.61c-.36.33-1.07.17-1.54-.35s-.59-1.23-.22-1.57 1.05-.18 1.54.35.59 1.23.22 1.57zM34.57 116c-.46.32-1.22 0-1.69-.65s-.46-1.48 0-1.8 1.22 0 1.69.63a1.34 1.34 0 0 1 0 1.82zM38.64 120.14c-.42.46-1.3.33-1.94-.29s-.84-1.47-.43-1.92 1.31-.33 1.95.28.86 1.48.42 1.93zM44.25 122.57c-.18.59-1 .86-1.88.61s-1.41-1-1.24-1.54 1-.88 1.89-.61 1.41.94 1.23 1.54zM50.42 123c0 .62-.7 1.13-1.6 1.14s-1.63-.48-1.64-1.09.71-1.14 1.61-1.15 1.63.48 1.63 1.1zM56.16 122.05c.11.6-.52 1.23-1.41 1.39s-1.68-.21-1.79-.81.52-1.25 1.4-1.41 1.69.21 1.8.83zM229.26 69.5h31v7h-31z"/><path d="M241.17 57.5h7v31h-7z"/><path d="M438 9a13 13 0 0 0-24.81 8l33.68 103.53a13 13 0 0 0 15.81 8c6.95-2 11.15-9.35 8.87-16.06C471.56 112.29 438 9 438 9z" fill="#ecb32d"/><path d="M385.88 25.9a13 13 0 1 0-24.8 8l33.67 103.54a13 13 0 0 0 15.82 8c6.95-2 11.14-9.34 8.87-16 0-.25-33.56-103.54-33.56-103.54z" fill="#63c1a0"/><path d="M480.43 94.68a13 13 0 1 0-8-24.81l-103.68 33.79a13 13 0 0 0-8 15.82c2 7 9.35 11.15 16.06 8.87.19 0 103.62-33.67 103.62-33.67z" fill="#e01a59"/><path d="M390.32 124c6.71-2.16 15.45-5 24.8-8-2.16-6.71-5-15.46-8-24.81l-24.8 8z" fill="#331433"/><path d="M442.56 107c9.35-3 18.1-5.87 24.81-8-2.16-6.71-5-15.46-8-24.8l-24.81 8z" fill="#d62027"/><path d="M463.41 42.55a13 13 0 1 0-8-24.8L351.85 51.42a13 13 0 0 0-8 15.82c2 7 9.35 11.14 16.06 8.86.21 0 103.5-33.55 103.5-33.55z" fill="#89d3df"/><path d="M373.42 71.79c6.71-2.16 15.46-5 24.81-8-3-9.34-5.88-18.09-8-24.8l-24.81 8z" fill="#258b74"/><path d="M425.55 54.89c9.34-3 18.09-5.87 24.8-8-3-9.35-5.87-18.1-8-24.81l-24.8 8z" fill="#819c3c"/><g clip-path="url(#a)"><path fill="#fefefe" d="M20.11 105.18h12.06v11.64H20.11z"/></g><g clip-path="url(#b)"><path fill="#fefefe" d="M23.18 107.76h12.2v12.25h-12.2z"/></g><g clip-path="url(#c)"><path fill="#fefefe" d="M26.09 111.58h12.37v12.69H26.09z"/></g><g clip-path="url(#d)"><path fill="#fefefe" d="M29.58 115.84h12.8v12.74h-12.8z"/></g><g clip-path="url(#e)"><path fill="#fefefe" d="M34.59 119.09h13.16v12.33H34.59z"/></g><g clip-path="url(#f)"><path fill="#fefefe" d="M40.63 120.08h13.22v12.23H40.63z"/></g><g clip-path="url(#g)"><path fill="#fefefe" d="M46.36 119.35h13.2v12.28h-13.2z"/></g></g></g></svg>