<svg xmlns="http://www.w3.org/2000/svg" xmlns:xlink="http://www.w3.org/1999/xlink" viewBox="0 0 484.99 147.45"><defs><clipPath id="clip-path"><path d="M27.11,111.85c-.17.37-.75.48-1.29.23s-.84-.75-.67-1.13.75-.49,1.29-.23.85.76.67,1.13" style="fill:none"/></clipPath><clipPath id="clip-path-2"><path d="M30.14,115.23a1.14,1.14,0,0,1-1.53-.34c-.49-.53-.58-1.23-.22-1.56s1.05-.18,1.54.35.58,1.22.21,1.55" style="fill:none"/></clipPath><clipPath id="clip-path-3"><path d="M33.09,119.54c-.46.32-1.21,0-1.67-.64a1.32,1.32,0,0,1,0-1.79c.46-.32,1.2,0,1.67.63a1.32,1.32,0,0,1,0,1.8" style="fill:none"/></clipPath><clipPath id="clip-path-4"><path d="M37.13,123.71c-.41.45-1.28.33-1.92-.29s-.84-1.46-.43-1.91a1.42,1.42,0,0,1,1.94.29c.65.6.85,1.46.41,1.91" style="fill:none"/></clipPath><clipPath id="clip-path-5"><path d="M42.71,126.13c-.18.58-1,.85-1.87.6s-1.4-.94-1.23-1.54,1-.86,1.88-.6,1.4.94,1.22,1.54" style="fill:none"/></clipPath><clipPath id="clip-path-6"><path d="M48.84,126.58c0,.61-.7,1.12-1.59,1.14s-1.62-.48-1.63-1.09.71-1.13,1.6-1.15,1.62.48,1.62,1.1" style="fill:none"/></clipPath><clipPath id="clip-path-7"><path d="M54.54,125.61c.11.6-.51,1.22-1.39,1.38s-1.68-.21-1.79-.81.52-1.24,1.39-1.4,1.68.21,1.79.83" style="fill:none"/></clipPath></defs><title>globantAsset 1</title><g id="Layer_2" data-name="Layer 2"><g id="Layer_1-2" data-name="Layer 1"><path d="M75.35.4A75.37,75.37,0,0,0,51.53,147.27c3.76.7,5.15-1.64,5.15-3.63,0-1.79-.07-7.73-.11-14-21,4.56-25.39-8.89-25.39-8.89-3.42-8.71-8.36-11-8.36-11-6.84-4.68.51-4.59.51-4.59,7.57.54,11.55,7.77,11.55,7.77,6.72,11.52,17.63,8.19,21.93,6.27.68-4.87,2.63-8.2,4.79-10.08-16.74-1.91-34.34-8.37-34.34-37.25A29.13,29.13,0,0,1,35,51.6c-.78-1.9-3.36-9.57.73-20,0,0,6.33-2,20.73,7.73a71.3,71.3,0,0,1,37.74,0c14.38-9.75,20.7-7.73,20.7-7.73,4.1,10.38,1.52,18,.74,20a29.11,29.11,0,0,1,7.76,20.22c0,29-17.63,35.32-34.41,37.19,2.7,2.34,5.11,6.92,5.11,14,0,10.09-.09,18.2-.09,20.68,0,2,1.36,4.36,5.18,3.62A75.37,75.37,0,0,0,75.35.4Z"/><path d="M28.53,108.6c-.16.38-.75.49-1.29.23s-.85-.76-.67-1.13a1,1,0,0,1,1.29-.24C28.4,107.71,28.72,108.23,28.53,108.6ZM31.59,112c-.36.33-1.07.17-1.54-.35s-.59-1.23-.22-1.57,1.05-.18,1.54.35S32,111.67,31.59,112Zm3,4.39c-.46.32-1.22,0-1.69-.65a1.32,1.32,0,0,1,0-1.8c.46-.32,1.22,0,1.69.63A1.35,1.35,0,0,1,34.56,116.4Zm4.07,4.14c-.42.46-1.3.33-1.94-.29s-.84-1.47-.43-1.92,1.31-.33,2,.28S39.07,120.09,38.63,120.54ZM44.24,123c-.18.59-1,.86-1.88.61s-1.41-1-1.24-1.54a1.48,1.48,0,0,1,1.89-.61C43.9,121.7,44.42,122.37,44.24,123Zm6.17.43c0,.62-.7,1.13-1.6,1.14s-1.63-.48-1.64-1.09.71-1.14,1.61-1.15S50.41,122.78,50.41,123.4Zm5.74-1c.11.6-.52,1.23-1.41,1.39s-1.68-.21-1.79-.81.52-1.25,1.4-1.41S56,121.83,56.15,122.45ZM229.25,69.9h31v7h-31Z"/><path d="M241.16,57.9h7v31h-7Z"/><g style="clip-path:url(#clip-path)"><path d="M20.1,105.58H32.16v11.64H20.1Z" style="fill:#fefefe"/></g><g style="clip-path:url(#clip-path-2)"><path d="M23.17,108.16h12.2v12.25H23.17Z" style="fill:#fefefe"/></g><g style="clip-path:url(#clip-path-3)"><path d="M26.08,112H38.45v12.69H26.08Z" style="fill:#fefefe"/></g><g style="clip-path:url(#clip-path-4)"><path d="M29.57,116.24h12.8V129H29.57Z" style="fill:#fefefe"/></g><g style="clip-path:url(#clip-path-5)"><path d="M34.58,119.49H47.74v12.33H34.58Z" style="fill:#fefefe"/></g><g style="clip-path:url(#clip-path-6)"><path d="M40.62,120.48H53.84v12.23H40.62Z" style="fill:#fefefe"/></g><g style="clip-path:url(#clip-path-7)"><path d="M46.35,119.75h13.2V132H46.35Z" style="fill:#fefefe"/></g><path d="M368.56,93.15a15.49,15.49,0,1,1-15.49-15.49h15.49Z" style="fill:#e01e5a"/><path d="M376.36,93.15a15.49,15.49,0,1,1,31,0v38.77a15.49,15.49,0,0,1-31,0Z" style="fill:#e01e5a"/><path d="M391.84,31a15.49,15.49,0,1,1,15.49-15.49V31Z" style="fill:#36c5f0"/><path d="M391.84,38.77a15.49,15.49,0,1,1,0,31H353.07a15.49,15.49,0,0,1,0-31Z" style="fill:#36c5f0"/><path d="M454,54.25A15.49,15.49,0,1,1,469.5,69.74H454Z" style="fill:#2eb67d"/><path d="M446.22,54.25a15.49,15.49,0,1,1-31,0V15.48a15.49,15.49,0,0,1,31,0Z" style="fill:#2eb67d"/><path d="M430.73,116.43a15.49,15.49,0,1,1-15.48,15.49V116.43Z" style="fill:#ecb22e"/><path d="M430.73,108.63a15.49,15.49,0,0,1,0-31H469.5a15.49,15.49,0,1,1,0,31Z" style="fill:#ecb22e"/></g></g></svg>